/* XPM */
static char * 12_xpm[] = {
"16 16 32 1",
" 	c None",
".	c #FFFFFF",
"+	c #1FC21D",
"@	c #20C21E",
"#	c #36C834",
"$	c #A6E6A5",
"%	c #FDFEFD",
"&	c #CFF2CF",
"*	c #27C425",
"=	c #C0EEC0",
"-	c #5ED35C",
";	c #8ADF89",
">	c #2EC62C",
",	c #30C62E",
"'	c #B2EAB1",
")	c #22C220",
"!	c #C6EFC6",
"~	c #A5E6A4",
"{	c #F5FCF5",
"]	c #C1EEC0",
"^	c #34C733",
"/	c #FBFEFB",
"(	c #ADE8AC",
"_	c #43CB41",
":	c #FCFEFC",
"<	c #FAFDFA",
"[	c #24C322",
"}	c #F7FCF7",
"|	c #9AE399",
"1	c #52D051",
"2	c #57D155",
"3	c #E0F6DF",
"................",
"................",
"................",
"................",
"..++@#$.+.......",
"..+.%&*.........",
"..+.%=-.+.+;>,'.",
"..+++)!.+.+~{]^.",
"..+./(_.+.+..:+.",
"..+..<[.+.+...+.",
"..+.}|1.+.+...+.",
"..++[23.+.+...+.",
"................",
"................",
"................",
"................"};
