/* XPM */
static char * 14_xpm[] = {
"16 16 28 1",
" 	c None",
".	c #FFFFFF",
"+	c #7B387A",
"@	c #A77AA6",
"#	c #D4BFD4",
"$	c #D3BCD2",
"%	c #F4EEF4",
"&	c #915A90",
"*	c #E9DEE9",
"=	c #915990",
"-	c #F4EFF4",
";	c #D4BED3",
">	c #803F7F",
",	c #D1BAD1",
"'	c #814180",
")	c #D6C1D5",
"!	c #F3EDF3",
"~	c #90588F",
"{	c #EAE0EA",
"]	c #925B91",
"^	c #F5F0F5",
"/	c #EADFEA",
"(	c #A679A5",
"_	c #D3BDD3",
":	c #A77BA6",
"<	c #D9C6D9",
"[	c #935D93",
"}	c #824381",
"................",
"................",
"................",
"................",
"+++++.......+...",
"..+.........+...",
"..+...@#.$@.+++.",
"..+...%&*=-.+...",
"..+....;>;..+...",
"..+....,')..+...",
"..+...!~{]^.>/..",
"..+...(_.):.<[}.",
"................",
"................",
"................",
"................"};
